<svg width="21" height="20" viewBox="0 0 21 20" fill="none" xmlns="http://www.w3.org/2000/svg"><circle cx="10.996" cy="10" r="8" fill="#A1C452"/><circle cx="10.996" cy="10" r="9.5" stroke="#A1C452"/><path d="M11.523 6c-.873 0-1.544.434-1.87 1.134h-.034v-1.04H7.996V14h1.645v-2.947h.034c.321.673.997 1.096 1.876 1.096 1.51 0 2.445-1.157 2.445-3.075 0-1.923-.94-3.074-2.473-3.074zm-.552 4.842c-.806 0-1.335-.69-1.335-1.768 0-1.067.53-1.773 1.335-1.773.822 0 1.34.695 1.34 1.773 0 1.084-.518 1.768-1.34 1.768z" fill="#fff"/></svg>